<svg width="34" height="34" viewBox="0 0 34 34" fill="none" xmlns="http://www.w3.org/2000/svg">
<path fill-rule="evenodd" clip-rule="evenodd" d="M11.3332 12.4666C12.2721 12.4666 13.0332 13.2277 13.0332 14.1666L13.0332 22.6666C13.0332 23.6054 12.2721 24.3666 11.3332 24.3666C10.3943 24.3666 9.6332 23.6054 9.6332 22.6666L9.6332 14.1666C9.6332 13.2277 10.3943 12.4666 11.3332 12.4666Z" fill="#2491EB"/>
<path fill-rule="evenodd" clip-rule="evenodd" d="M17.0002 15.3C17.9391 15.3 18.7002 16.0612 18.7002 17V22.6667C18.7002 23.6056 17.9391 24.3667 17.0002 24.3667C16.0613 24.3667 15.3002 23.6056 15.3002 22.6667V17C15.3002 16.0612 16.0613 15.3 17.0002 15.3Z" fill="#156CB5"/>
<path fill-rule="evenodd" clip-rule="evenodd" d="M22.6662 9.6333C23.6051 9.6333 24.3662 10.3944 24.3662 11.3333V22.6666C24.3662 23.6055 23.6051 24.3666 22.6662 24.3666C21.7273 24.3666 20.9662 23.6055 20.9662 22.6666V11.3333C20.9662 10.3944 21.7273 9.6333 22.6662 9.6333Z" fill="#E97355"/>
<path fill-rule="evenodd" clip-rule="evenodd" d="M10.9379 3.96656C10.9751 3.96656 11.0124 3.96656 11.0498 3.96656L23.0617 3.96656C24.5687 3.96647 25.8672 3.9664 26.9071 4.1062C28.0214 4.25602 29.0896 4.59389 29.9561 5.46032C30.8225 6.32674 31.1603 7.39494 31.3102 8.50932C31.45 9.54915 31.4499 10.8476 31.4498 12.3547V21.6451C31.4499 23.1521 31.45 24.4506 31.3102 25.4905C31.1603 26.6048 30.8225 27.673 29.9561 28.5395C29.0896 29.4059 28.0214 29.7438 26.9071 29.8936C25.8672 30.0334 24.5688 30.0333 23.0617 30.0332H10.9379C9.43087 30.0333 8.13239 30.0334 7.09257 29.8936C5.97819 29.7438 4.90999 29.4059 4.04357 28.5395C3.17714 27.673 2.83928 26.6048 2.68945 25.4905C2.54965 24.4506 2.54972 23.1522 2.54981 21.6451L2.54981 12.4666C2.54981 12.4291 2.54981 12.3918 2.54981 12.3546C2.54972 10.8476 2.54965 9.54914 2.68945 8.50931C2.83928 7.39494 3.17714 6.32674 4.04357 5.46032C4.90999 4.59389 5.97819 4.25602 7.09257 4.1062C8.13239 3.9664 9.43087 3.96647 10.9379 3.96656ZM7.54561 7.47588C6.80825 7.57502 6.57714 7.73507 6.44773 7.86448C6.31832 7.99389 6.15827 8.225 6.05913 8.96236C5.95342 9.74862 5.94981 10.8157 5.94981 12.4666V21.5332C5.94981 23.1841 5.95342 24.2512 6.05913 25.0374C6.15827 25.7748 6.31832 26.0059 6.44773 26.1353C6.57714 26.2647 6.80825 26.4248 7.54561 26.5239C8.33187 26.6296 9.39898 26.6332 11.0498 26.6332H22.9498C24.6006 26.6332 25.6678 26.6296 26.454 26.5239C27.1914 26.4248 27.4225 26.2647 27.5519 26.1353C27.6813 26.0059 27.8414 25.7748 27.9405 25.0374C28.0462 24.2512 28.0498 23.1841 28.0498 21.5332V12.4666C28.0498 10.8157 28.0462 9.74862 27.9405 8.96236C27.8414 8.225 27.6813 7.99389 27.5519 7.86448C27.4225 7.73507 27.1914 7.57502 26.454 7.47588C25.6678 7.37017 24.6006 7.36656 22.9498 7.36656H11.0498C9.39898 7.36656 8.33187 7.37017 7.54561 7.47588Z" fill="#A6A4A4"/>
</svg>
