<svg width="34" height="34" viewBox="0 0 34 34" fill="none" xmlns="http://www.w3.org/2000/svg">
	<circle cx="17" cy="17" r="17" fill="black"/>
	<path d="M24.4956 14.5774C24.834 12.3154 23.1117 11.0994 20.7567 10.2881L21.5206 7.22388L19.6554 6.75904L18.9116 9.74254C18.4213 9.62035 17.9177 9.50507 17.4172 9.39085L18.1663 6.3877L16.3021 5.92285L15.5377 8.98604C15.1318 8.8936 14.7334 8.80223 14.3466 8.70607L14.3487 8.69651L11.7764 8.05423L11.2802 10.0464C11.2802 10.0464 12.6641 10.3636 12.6349 10.3832C13.3904 10.5718 13.5269 11.0717 13.504 11.468L12.6339 14.9589C12.6859 14.9722 12.7534 14.9913 12.8278 15.021C12.7656 15.0056 12.6992 14.9886 12.6307 14.9722L11.4109 19.8623C11.3185 20.0918 11.0842 20.4361 10.5561 20.3054C10.5747 20.3325 9.20038 19.967 9.20038 19.967L8.27441 22.1021L10.7017 22.7072C11.1533 22.8203 11.5958 22.9388 12.0314 23.0504L11.2595 26.1497L13.1226 26.6145L13.8871 23.5481C14.396 23.6863 14.8901 23.8138 15.3735 23.9338L14.6117 26.9859L16.4769 27.4507L17.2488 24.3572C20.4294 24.9591 22.8211 24.7164 23.8278 21.8396C24.639 19.5234 23.7874 18.1873 22.114 17.316C23.3327 17.035 24.2507 16.2334 24.4956 14.5774V14.5774ZM20.2339 20.5535C19.6575 22.8697 15.7576 21.6176 14.4932 21.3036L15.5175 17.1976C16.7819 17.5131 20.8364 18.1379 20.2339 20.5535ZM20.8109 14.544C20.2849 16.6509 17.039 15.5804 15.986 15.318L16.9147 11.5939C17.9676 11.8564 21.3586 12.3462 20.8109 14.544V14.544Z" fill="white"/>
</svg>
