<svg width="34" height="34" viewBox="0 0 34 34" fill="none" xmlns="http://www.w3.org/2000/svg">
<path fill-rule="evenodd" clip-rule="evenodd" d="M11.333 8.49992H8.49967V7.08325H5.66634V11.3333H28.333V7.08325H25.4997V8.49992H22.6663V7.08325H11.333V8.49992ZM28.333 14.1666H5.66634V28.3333H28.333V14.1666ZM22.6663 4.24992H11.333V2.83325H8.49967V4.24992H5.66634C4.10153 4.24992 2.83301 5.51845 2.83301 7.08325V28.3333C2.83301 29.8981 4.10153 31.1666 5.66634 31.1666H28.333C29.8978 31.1666 31.1663 29.8981 31.1663 28.3333V7.08325C31.1663 5.51845 29.8978 4.24992 28.333 4.24992H25.4997V2.83325H22.6663V4.24992ZM12.7497 19.8333H9.91634V16.9999H12.7497V19.8333ZM15.583 19.8333H18.4163V16.9999H15.583V19.8333ZM24.083 19.8333H21.2497V16.9999H24.083V19.8333ZM9.91634 25.4999H12.7497V22.6666H9.91634V25.4999ZM18.4163 25.4999H15.583V22.6666H18.4163V25.4999Z" fill="black"/>
</svg>
