<svg width="34" height="34" viewBox="0 0 34 34" fill="none" xmlns="http://www.w3.org/2000/svg">
<path fill-rule="evenodd" clip-rule="evenodd" d="M14.1663 2.83325H28.333C29.9654 2.83325 31.1663 4.03418 31.1663 5.66659V19.8333C31.1663 21.4657 29.9654 22.6666 28.333 22.6666H22.6663V28.3333C22.6663 29.9657 21.4654 31.1666 19.833 31.1666H5.66634C4.03394 31.1666 2.83301 29.9657 2.83301 28.3333V14.1666C2.83301 12.5342 4.03394 11.3333 5.66634 11.3333H11.333V5.66659C11.333 4.03418 12.5339 2.83325 14.1663 2.83325ZM11.333 14.1666H5.66634V28.3333H19.833V22.6666H14.1663C12.5339 22.6666 11.333 21.4657 11.333 19.8333V14.1666ZM14.1663 5.66659V19.8333H28.333V5.66659H14.1663Z" fill="black"/>
</svg>
