<svg width="34" height="34" viewBox="0 0 34 34" fill="none" xmlns="http://www.w3.org/2000/svg">
<path d="M28.4268 26.1413C29.0579 26.7724 29.0579 27.7956 28.4268 28.4267C27.7958 29.0577 26.7726 29.0577 26.1415 28.4267L5.57359 7.85873C4.94251 7.22765 4.94251 6.20448 5.57359 5.5734C6.20466 4.94233 7.22784 4.94233 7.85891 5.5734L28.4268 26.1413Z" fill="black"/>
<path d="M26.1418 5.57353C26.7728 4.94245 27.796 4.94245 28.4271 5.57353C29.0582 6.2046 29.0582 7.22778 28.4271 7.85885L7.85915 28.4268C7.22807 29.0579 6.20489 29.0579 5.57382 28.4268C4.94274 27.7957 4.94274 26.7725 5.57382 26.1415L26.1418 5.57353Z" fill="black"/>
</svg>
