<svg width="34" height="34" viewBox="0 0 34 34" fill="none" xmlns="http://www.w3.org/2000/svg">
<path d="M17 0C26.3897 0 34 7.61183 34 17C34 26.3897 26.3897 34 17 34C7.61183 34 0 26.3889 0 17C0 7.61183 7.61183 0 17 0Z" fill="#F5AC37"/>
<path d="M17.6268 18.2007H24.0865C24.2242 18.2007 24.2892 18.2007 24.2992 18.0201C24.352 17.363 24.352 16.702 24.2992 16.0441C24.2992 15.9164 24.2357 15.8636 24.0972 15.8636H11.2413C11.0821 15.8636 11.0393 15.9164 11.0393 16.0655V17.9566C11.0393 18.2007 11.0393 18.2007 11.294 18.2007H17.6268V18.2007ZM23.5778 13.6535C23.5961 13.6053 23.5961 13.5525 23.5778 13.5051C23.4699 13.2702 23.3421 13.0461 23.1937 12.8357C22.9703 12.4761 22.7072 12.1449 22.4073 11.8473C22.2658 11.6675 22.1021 11.5061 21.9185 11.3692C20.9989 10.5866 19.9057 10.0327 18.7307 9.75423C18.1378 9.62112 17.5319 9.55762 16.9245 9.56298H11.2191C11.0599 9.56298 11.0385 9.62648 11.0385 9.76494V13.5364C11.0385 13.6956 11.0385 13.7384 11.2405 13.7384H23.5013C23.5013 13.7384 23.6076 13.717 23.629 13.6535H23.577H23.5778ZM23.5778 20.4108C23.3972 20.3909 23.2152 20.3909 23.0346 20.4108H11.252C11.0928 20.4108 11.0393 20.4108 11.0393 20.6235V24.3108C11.0393 24.4806 11.0393 24.5235 11.252 24.5235H16.6919C16.952 24.5434 17.2121 24.525 17.4669 24.4707C18.2564 24.4141 19.0329 24.2427 19.7734 23.9604C20.0427 23.8671 20.3028 23.7455 20.5483 23.5993H20.6225C21.8978 22.9361 22.9336 21.8941 23.5869 20.615C23.5869 20.615 23.6612 20.4544 23.5778 20.4123V20.4108ZM8.90415 26.4352V26.3717V23.8962V23.057V20.56C8.90415 20.4215 8.90415 20.4008 8.73432 20.4008H6.42859C6.30083 20.4008 6.24805 20.4008 6.24805 20.231V18.2122H8.7129C8.8506 18.2122 8.90415 18.2122 8.90415 18.0316V16.0342C8.90415 15.9064 8.90415 15.8751 8.73432 15.8751H6.42859C6.30083 15.8751 6.24805 15.8751 6.24805 15.7052V13.8355C6.24805 13.7185 6.24805 13.6871 6.41788 13.6871H8.70219C8.86131 13.6871 8.90415 13.6871 8.90415 13.4852V7.75833C8.90415 7.5885 8.90415 7.54565 9.11683 7.54565H17.0851C17.6635 7.5686 18.238 7.6321 18.8064 7.73691C19.9776 7.9534 21.103 8.37186 22.1319 8.96933C22.8143 9.37096 23.4424 9.85598 24.0016 10.4144C24.4223 10.8513 24.8018 11.324 25.1384 11.8274C25.4727 12.3377 25.7504 12.8831 25.9684 13.453C25.9952 13.6015 26.1375 13.7017 26.2859 13.6764H28.1877C28.4317 13.6764 28.4317 13.6764 28.4424 13.9105V15.6532C28.4424 15.823 28.379 15.8659 28.2084 15.8659H26.7418C26.5934 15.8659 26.5506 15.8659 26.5613 16.0571C26.6194 16.7043 26.6194 17.3538 26.5613 18.001C26.5613 18.1816 26.5613 18.203 26.764 18.203H28.4417C28.5159 18.2986 28.4417 18.3942 28.4417 18.4906C28.4524 18.6138 28.4524 18.7385 28.4417 18.8616V20.1476C28.4417 20.3282 28.3889 20.3817 28.229 20.3817H26.2209C26.0809 20.3549 25.9447 20.4444 25.9126 20.5837C25.4344 21.8268 24.6694 22.9414 23.681 23.835C23.32 24.1601 22.9405 24.4661 22.5442 24.7484C22.1189 24.9932 21.705 25.2479 21.269 25.4499C20.4665 25.811 19.625 26.0772 18.7613 26.2463C17.9412 26.3931 17.1096 26.4597 16.275 26.4482H8.90109V26.4375L8.90415 26.4352Z" fill="#FEFEFD"/>
</svg>
