<svg width="34" height="34" viewBox="0 0 34 34" fill="none" xmlns="http://www.w3.org/2000/svg">
<circle cx="17" cy="17" r="17" fill="black"/>
<path d="M22.7262 20.0245C22.7262 21.1436 22.3012 22.0928 21.4512 22.872C20.6154 23.6511 19.397 24.1045 17.7962 24.232V26.6332H16.4362V24.232C15.402 24.1753 14.4175 23.984 13.4825 23.6582C12.5616 23.3182 11.825 22.8932 11.2725 22.3832L12.0587 20.7257C12.5687 21.1932 13.2133 21.5828 13.9925 21.8945C14.7716 22.192 15.5862 22.369 16.4362 22.4257V17.4957C15.4445 17.2549 14.6158 16.9928 13.95 16.7095C13.2983 16.4261 12.7458 16.0082 12.2925 15.4557C11.8533 14.9032 11.6337 14.1807 11.6337 13.2882C11.6337 12.169 12.0375 11.2199 12.845 10.4407C13.6666 9.66154 14.8637 9.2082 16.4362 9.0807V6.6582H17.7962V9.05945C18.6037 9.08779 19.3829 9.21529 20.1337 9.44195C20.8987 9.66862 21.5575 9.9732 22.11 10.3557L21.4087 12.0557C20.2612 11.3332 19.057 10.9365 17.7962 10.8657V15.817C18.8304 16.072 19.6804 16.3411 20.3462 16.6245C21.012 16.8936 21.5716 17.3045 22.025 17.857C22.4925 18.3953 22.7262 19.1178 22.7262 20.0245ZM13.7162 13.2032C13.7162 13.8124 13.95 14.287 14.4175 14.627C14.885 14.967 15.5579 15.2503 16.4362 15.477V10.887C15.5295 11.0003 14.8495 11.2695 14.3962 11.6945C13.9429 12.1053 13.7162 12.6082 13.7162 13.2032ZM17.7962 22.4045C18.7454 22.3195 19.4537 22.0786 19.9212 21.682C20.4029 21.2711 20.6437 20.7611 20.6437 20.152C20.6437 19.5286 20.3958 19.054 19.9 18.7282C19.4183 18.3882 18.717 18.0907 17.7962 17.8357V22.4045Z" fill="white"/>
</svg>
