<svg width="34" height="34" viewBox="0 0 34 34" fill="none" xmlns="http://www.w3.org/2000/svg">
<circle cx="17" cy="17" r="17" fill="#BCF4D4"/>
<path d="M10.626 17.0122L17.0408 13.2544L23.3729 16.985L17.0463 20.746L10.626 17.0122Z" fill="#009F42"/>
<path d="M10.626 17.0122L17.0408 13.2544L23.3729 16.985L17.0463 20.746L10.626 17.0122Z" fill="#01C853"/>
<path d="M17.041 13.2544L23.3731 16.985L17.0465 20.746L17.041 13.2544Z" fill="#009F42"/>
<path d="M17.041 17.5885L23.3731 16.9849L17.0465 20.7459L17.041 17.5885H17.041Z" fill="#007831"/>
<path d="M17.0408 17.5883L10.626 17.012L17.0353 20.7458L17.0408 17.5883H17.0408Z" fill="#009F42"/>
<path d="M10.625 18.0112C12.872 19.3196 15.2134 20.6909 17.0262 21.7512L23.375 18.0123C21.0763 21.762 19.1615 24.881 17.0261 28.3332C14.8881 24.8882 12.5257 21.0856 10.625 18.0112Z" fill="#009F42"/>
<path d="M10.625 18.0112C12.872 19.3196 15.2134 20.6909 17.0262 21.7512L23.375 18.0123C21.0763 21.762 19.1615 24.881 17.0261 28.3332C14.8881 24.8882 12.5257 21.0856 10.625 18.0112Z" fill="#01C853"/>
<path d="M17.0264 21.7511L23.3752 18.0122C21.0765 21.7619 17.0264 28.3332 17.0264 28.3332L17.0264 21.7511Z" fill="#009F42"/>
<path d="M17.0264 21.7511L23.3752 18.0122C21.0765 21.7619 19.1617 24.8809 17.0264 28.3332L17.0264 21.7511Z" fill="#009F42"/>
<path d="M17.0261 12.2092L10.627 15.9082L16.9983 5.66675L23.3738 15.9306L17.0261 12.2092Z" fill="#01C853"/>
<path d="M17.0249 12.2092L16.9971 5.66675L23.3725 15.9306L17.0249 12.2092Z" fill="#009F42"/>
</svg>
