<svg width="34" height="34" viewBox="0 0 34 34" fill="none" xmlns="http://www.w3.org/2000/svg">
<path d="M27.5238 3.1875H6.47619C4.66083 3.1875 3.1875 4.66083 3.1875 6.47619V27.5238C3.1875 29.3392 4.66083 30.8125 6.47619 30.8125H27.5238C29.3392 30.8125 30.8125 29.3392 30.8125 27.5238V6.47619C30.8125 4.66083 29.3392 3.1875 27.5238 3.1875ZM24.8929 13.0536H23.5774C22.1698 13.0536 21.6042 13.3824 21.6042 14.369V16.3423H24.8929L24.2351 19.631H21.6042V29.497H18.3155V19.631H15.6845V16.3423H18.3155V14.369C18.3155 11.7381 19.631 9.76488 22.2619 9.76488C24.1693 9.76488 24.8929 10.4226 24.8929 10.4226V13.0536Z" fill="black"/>
</svg>
