<svg width="34" height="34" viewBox="0 0 34 34" fill="none" xmlns="http://www.w3.org/2000/svg">
<path fill-rule="evenodd" clip-rule="evenodd" d="M3.66287 5.07986C2.83301 5.90973 2.83301 7.24537 2.83301 9.91667V12.75H16.8515C17.2583 12.75 17.4856 12.7491 17.6561 12.7361C17.7321 12.7303 17.7736 12.7235 17.7948 12.7191C17.8049 12.717 17.8103 12.7155 17.8122 12.7149L17.8147 12.7141L17.8169 12.7129C17.8188 12.712 17.8236 12.7093 17.8322 12.7036C17.8504 12.6917 17.8845 12.6672 17.9423 12.6176C18.072 12.5062 18.2334 12.3461 18.5211 12.0584L20.6629 9.91667H20.1674C19.3154 9.91667 18.8894 9.91667 18.5471 9.70509C18.2048 9.49351 18.0143 9.11249 17.6332 8.35045L17.6332 8.35044L17.1492 7.38246L17.1492 7.38245C16.3872 5.85836 16.0062 5.09631 15.3215 4.67316C14.6368 4.25 13.7848 4.25 12.0808 4.25H8.49967C5.82838 4.25 4.49274 4.25 3.66287 5.07986ZM24.6623 9.92417L20.5246 14.0619L20.4178 14.169C19.9841 14.6053 19.516 15.0761 18.8989 15.3317C18.2818 15.5873 17.6179 15.5854 17.0027 15.5836L16.8515 15.5833H2.83301V21.25C2.83301 25.2569 2.83301 27.2604 4.0778 28.5052C5.3226 29.75 7.32607 29.75 11.333 29.75H22.6663C26.6733 29.75 28.6768 29.75 29.9215 28.5052C31.1663 27.2604 31.1663 25.2569 31.1663 21.25V18.4167C31.1663 14.4097 31.1663 12.4063 29.9215 11.1615C28.9033 10.1432 27.3773 9.95789 24.6623 9.92417Z" fill="black"/>
</svg>
