<svg width="34" height="34" viewBox="0 0 34 34" fill="none" xmlns="http://www.w3.org/2000/svg">
<path d="M10.8611 3.1875C6.62374 3.1875 3.1875 6.62374 3.1875 10.8611V23.1389C3.1875 27.3763 6.62374 30.8125 10.8611 30.8125H23.1389C27.3763 30.8125 30.8125 27.3763 30.8125 23.1389V10.8611C30.8125 6.62374 27.3763 3.1875 23.1389 3.1875H10.8611ZM26.2083 6.25694C27.0555 6.25694 27.7431 6.9445 27.7431 7.79167C27.7431 8.63883 27.0555 9.32639 26.2083 9.32639C25.3612 9.32639 24.6736 8.63883 24.6736 7.79167C24.6736 6.9445 25.3612 6.25694 26.2083 6.25694ZM17 9.32639C21.2374 9.32639 24.6736 12.7626 24.6736 17C24.6736 21.2374 21.2374 24.6736 17 24.6736C12.7626 24.6736 9.32639 21.2374 9.32639 17C9.32639 12.7626 12.7626 9.32639 17 9.32639ZM17 12.3958C15.7789 12.3958 14.6078 12.8809 13.7444 13.7444C12.8809 14.6078 12.3958 15.7789 12.3958 17C12.3958 18.2211 12.8809 19.3922 13.7444 20.2556C14.6078 21.1191 15.7789 21.6042 17 21.6042C18.2211 21.6042 19.3922 21.1191 20.2556 20.2556C21.1191 19.3922 21.6042 18.2211 21.6042 17C21.6042 15.7789 21.1191 14.6078 20.2556 13.7444C19.3922 12.8809 18.2211 12.3958 17 12.3958Z" fill="black"/>
</svg>
