<svg width="34" height="34" viewBox="0 0 34 34" fill="none" xmlns="http://www.w3.org/2000/svg">
<g opacity="0.8">
<path fill-rule="evenodd" clip-rule="evenodd" d="M22.4596 28.903C23.0185 28.7533 23.3477 28.183 24.0062 27.0425L29.5935 17.365C30.252 16.2245 30.5813 15.6542 30.4315 15.0953C30.2818 14.5365 29.7115 14.2072 28.571 13.5488L16.6443 6.66289C15.3766 5.931 14.7428 5.56505 14.0426 5.54249C13.3424 5.51994 12.6863 5.84433 11.3742 6.49312L8.36443 7.98129C6.74593 8.78155 5.93668 9.18168 5.51376 9.91421C5.09083 10.6467 5.14893 11.5476 5.26513 13.3494L5.48122 16.7C5.57543 18.1608 5.62253 18.8912 5.99216 19.4863C6.36179 20.0814 6.99563 20.4473 8.26331 21.1792L20.19 28.0651C21.3305 28.7236 21.9008 29.0528 22.4596 28.903ZM13.6804 11.4034C12.3442 10.6319 10.6356 11.0897 9.86417 12.4259C9.09272 13.7621 9.55054 15.4707 10.8867 16.2421C12.2229 17.0136 13.9315 16.5558 14.7029 15.2196C15.4744 13.8834 15.0166 12.1748 13.6804 11.4034Z" fill="black"/>
</g>
</svg>
