<svg width="34" height="34" viewBox="0 0 34 34" fill="none" xmlns="http://www.w3.org/2000/svg">
<path fill-rule="evenodd" clip-rule="evenodd" d="M24.8583 11.5875C25.5002 12.0155 25.6736 12.8827 25.2457 13.5246L20.9142 20.0218C19.7244 21.8066 17.0503 21.6402 16.091 19.7216L15.4106 18.3607L11.0791 24.8579C10.6511 25.4998 9.78388 25.6733 9.142 25.2453C8.50011 24.8174 8.32666 23.9502 8.75459 23.3083L13.0861 16.811C14.2759 15.0262 16.95 15.1927 17.9093 17.1113L18.5897 18.4722L22.9213 11.9749C23.3492 11.3331 24.2164 11.1596 24.8583 11.5875Z" fill="#EB4C24"/>
<path fill-rule="evenodd" clip-rule="evenodd" d="M9.82407 2.82935C9.85505 2.82935 9.88613 2.82935 9.91733 2.82935L24.1773 2.82935C25.4331 2.82928 26.5152 2.82922 27.3817 2.94572C28.3103 3.07057 29.2005 3.35213 29.9225 4.07415C30.6446 4.79617 30.9261 5.68633 31.051 6.61498C31.1675 7.48151 31.1674 8.56359 31.1673 9.81946V24.1726C31.1674 25.4284 31.1675 26.5105 31.051 27.3771C30.9261 28.3057 30.6446 29.1959 29.9225 29.9179C29.2005 30.6399 28.3103 30.9215 27.3817 31.0463C26.5152 31.1628 25.4331 31.1628 24.1772 31.1627H9.8241C8.56823 31.1628 7.48615 31.1628 6.61962 31.0463C5.69097 30.9215 4.80081 30.6399 4.07879 29.9179C3.35677 29.1959 3.07521 28.3057 2.95036 27.3771C2.83386 26.5105 2.83392 25.4285 2.83399 24.1726L2.83399 9.91268C2.83399 9.88149 2.83399 9.85041 2.83399 9.81943C2.83392 8.56357 2.83386 7.4815 2.95036 6.61498C3.07521 5.68633 3.35677 4.79617 4.07879 4.07415C4.80081 3.35213 5.69097 3.07057 6.61962 2.94572C7.48614 2.82922 8.56821 2.82928 9.82407 2.82935ZM6.99716 5.75379C6.38269 5.8364 6.1901 5.96977 6.08226 6.07762C5.97441 6.18546 5.84104 6.37805 5.75843 6.99252C5.67033 7.64773 5.66733 8.53699 5.66733 9.91268V24.0794C5.66733 25.455 5.67033 26.3443 5.75843 26.9995C5.84104 27.614 5.97441 27.8066 6.08226 27.9144C6.1901 28.0223 6.38269 28.1556 6.99716 28.2383C7.65237 28.3263 8.54163 28.3294 9.91733 28.3294H24.084C25.4597 28.3294 26.349 28.3263 27.0042 28.2383C27.6186 28.1556 27.8112 28.0223 27.9191 27.9144C28.0269 27.8066 28.1603 27.614 28.2429 26.9995C28.331 26.3443 28.334 25.455 28.334 24.0794V9.91268C28.334 8.53699 28.331 7.64773 28.2429 6.99252C28.1603 6.37805 28.0269 6.18546 27.9191 6.07762C27.8112 5.96977 27.6186 5.8364 27.0042 5.75379C26.349 5.66569 25.4597 5.66269 24.084 5.66269H9.91733C8.54163 5.66269 7.65237 5.66569 6.99716 5.75379Z" fill="#4D4848" fill-opacity="0.5"/>
</svg>
