<svg width="34" height="34" viewBox="0 0 34 34" fill="none" xmlns="http://www.w3.org/2000/svg">
<path d="M25.6328 3.1875H8.36719C5.50757 3.1875 3.1875 5.50757 3.1875 8.36719V25.6328C3.1875 28.4924 5.50757 30.8125 8.36719 30.8125H25.6328C28.4924 30.8125 30.8125 28.4924 30.8125 25.6328V8.36719C30.8125 5.50757 28.4924 3.1875 25.6328 3.1875ZM11.729 26.6372H7.4375L7.4126 13.7876H11.7041L11.729 26.6372ZM9.47534 12.1067H9.45044C8.04761 12.1067 7.14282 11.1396 7.14282 9.93604C7.14282 8.70337 8.07666 7.76953 9.5044 7.76953C10.9321 7.76953 11.8079 8.70337 11.8369 9.93604C11.8369 11.1396 10.928 12.1067 9.47534 12.1067ZM26.6082 26.6372H22.2793V19.6562C22.2793 17.967 21.8311 16.8174 20.3203 16.8174C19.1665 16.8174 18.5439 17.5935 18.2451 18.3447C18.1331 18.6145 18.104 18.9839 18.104 19.3616V26.6372H13.7544L13.7295 13.7876H18.0791L18.104 15.6013C18.6602 14.7422 19.5857 13.5261 21.802 13.5261C24.5496 13.5261 26.604 15.3191 26.604 19.1748V26.6372H26.6082Z" fill="black"/>
</svg>
