<svg width="34" height="34" viewBox="0 0 34 34" fill="none" xmlns="http://www.w3.org/2000/svg">
<path fill-rule="evenodd" clip-rule="evenodd" d="M4.14286 2C2.95939 2 2 2.95939 2 4.14286V29.8571C2 31.0406 2.95939 32 4.14286 32H29.8571C31.0406 32 32 31.0406 32 29.8571V4.14286C32 2.95939 31.0406 2 29.8571 2H4.14286ZM10.8642 28.0455V12.0909H5.95508V28.0455H10.8642ZM5.95508 8.53183C5.95508 7.18183 6.9369 5.95455 8.40962 5.95455C9.88235 5.95455 10.8642 7.0591 10.8642 8.4091C10.8642 9.7591 10.0051 10.8636 8.40962 10.8636C6.9369 10.8636 5.95508 9.7591 5.95508 8.53183ZM17.9824 14.7909C18.596 13.8091 20.0687 12.3364 22.646 12.3364C25.7142 12.3364 28.046 14.4227 28.046 18.9636V28.0455H23.1369V19.5773C23.1369 17.6136 22.4005 16.1409 20.6824 16.1409C19.3324 16.1409 18.7187 17.2455 18.3505 18.1046C18.2278 18.4727 18.2278 18.8409 18.2278 19.3318V28.0455H13.3187V17.4909C13.3187 16.4992 13.2831 15.5788 13.2502 14.7296C13.2221 14.0023 13.196 13.3273 13.196 12.7046H17.6142L17.8596 14.7909H17.9824Z" fill="black"/>
</svg>
