<svg width="217" height="41" viewBox="0 0 217 41" fill="none" xmlns="http://www.w3.org/2000/svg">
<path fill-rule="evenodd" clip-rule="evenodd" d="M83.3036 13.7236V40.6583H87.9315V5.75139L80.2754 0V12.0153L82.1037 13.0403L83.3036 13.7236Z" fill="#2491EB"/>
<path fill-rule="evenodd" clip-rule="evenodd" d="M79.2463 40.6583V12.5847L77.418 13.6097V40.6583H79.2463Z" fill="#104378"/>
<path fill-rule="evenodd" clip-rule="evenodd" d="M76.3898 40.6583V14.2361L74.5615 15.2611V40.6583H76.3898Z" fill="#104378"/>
<path fill-rule="evenodd" clip-rule="evenodd" d="M73.5334 40.6583V15.8875L71.7051 16.9125V40.6583H73.5334Z" fill="#104378"/>
<path fill-rule="evenodd" clip-rule="evenodd" d="M9.88441 25.5112C8.85598 27.9598 3.48526 40.6584 3.42812 40.6584H0L8.39889 21.5251H11.4842L19.8831 40.6584H16.3407C14.2267 35.5904 12.0556 30.5792 9.88441 25.5112ZM33.4242 37.6973C34.5669 37.6973 35.481 37.4695 36.1095 37.0709C36.738 36.6154 37.0808 35.989 37.0808 35.1348V35.0779C37.0808 34.2806 36.738 33.6542 36.1095 33.1987C35.481 32.7431 34.5097 32.5154 33.1385 32.5154H27.8249V37.7542H33.4242V37.6973ZM32.4529 29.6681C33.5384 29.6681 34.3955 29.4404 35.0811 29.0417C35.7096 28.6431 36.0524 27.9598 36.0524 27.1056V27.0487C36.0524 26.3084 35.7667 25.682 35.1954 25.2834C34.624 24.8848 33.8241 24.657 32.6814 24.657H27.882V29.7251H32.4529V29.6681ZM24.5682 21.6959H33.0814C35.2525 21.6959 36.9094 22.2654 38.0521 23.4042C38.9092 24.2584 39.3091 25.2834 39.3091 26.5362V26.5931C39.3091 27.1626 39.252 27.6751 39.0806 28.1306C38.9092 28.5862 38.7378 28.9848 38.5092 29.3265C38.2807 29.6681 37.995 29.9529 37.6522 30.1806C37.3094 30.4084 36.9666 30.6362 36.6237 30.807C37.1951 30.9779 37.7093 31.2626 38.1664 31.4904C38.6235 31.7751 39.0234 32.0598 39.3662 32.4015C39.7091 32.7431 39.9376 33.1987 40.1661 33.6542C40.3375 34.1667 40.4518 34.7362 40.4518 35.3626V35.4195C40.4518 36.2737 40.2804 37.014 39.9376 37.6973C39.5948 38.3237 39.1377 38.8931 38.5092 39.3487C37.8807 39.8042 37.138 40.089 36.2809 40.3167C35.4239 40.5445 34.4526 40.6584 33.4242 40.6584H24.5682V21.6959ZM54.5071 41.0001C53.1359 41.0001 51.8217 40.7723 50.6219 40.2598C49.4221 39.7473 48.3936 39.064 47.5366 38.2098C46.6796 37.3556 45.9939 36.2737 45.4797 35.0779C44.9655 33.882 44.737 32.6292 44.737 31.2626V31.2056C44.737 29.839 44.9655 28.5862 45.4797 27.3904C45.9939 26.1945 46.6224 25.1695 47.5366 24.2584C48.3936 23.3473 49.4792 22.664 50.679 22.1515C51.8789 21.639 53.193 21.3542 54.6785 21.3542C55.5355 21.3542 56.3354 21.4112 57.0782 21.582C57.821 21.7529 58.4494 21.9237 59.0779 22.2084C59.6493 22.4931 60.2206 22.7779 60.7349 23.1195C61.2491 23.4612 61.7062 23.8598 62.1632 24.3154L59.9921 26.764C59.2493 26.0806 58.4494 25.5112 57.5924 25.0556C56.7354 24.6001 55.7641 24.4292 54.6785 24.4292C53.7643 24.4292 52.9073 24.6001 52.1646 24.9417C51.3647 25.2834 50.7362 25.7959 50.1648 26.3654C49.5935 26.9917 49.1935 27.6751 48.8507 28.4723C48.565 29.2695 48.3936 30.1806 48.3936 31.0917V31.1487C48.3936 32.0598 48.565 32.9709 48.8507 33.7681C49.1364 34.5654 49.5935 35.3056 50.1648 35.932C50.7362 36.5584 51.4218 37.014 52.1646 37.4126C52.9645 37.7542 53.7643 37.9251 54.6785 37.9251C55.8212 37.9251 56.8497 37.6973 57.6496 37.2417C58.5066 36.7862 59.3065 36.2167 60.1064 35.4195L62.2775 37.5834C61.7633 38.0959 61.2491 38.5515 60.7349 39.007C60.2206 39.4056 59.6493 39.7473 59.0208 40.089C58.3923 40.3737 57.7067 40.6015 56.9639 40.7723C56.2212 40.9431 55.3641 41.0001 54.5071 41.0001Z" fill="#2491EB"/>
<path fill-rule="evenodd" clip-rule="evenodd" d="M102.558 23.8597H96.4443V21.9805H110.671V23.8597H104.558V40.0319H102.501V23.8597H102.558ZM125.355 38.4944C126.383 38.4944 127.355 38.3236 128.212 37.925C129.069 37.5264 129.811 37.0139 130.44 36.3305C131.068 35.6472 131.525 34.85 131.925 33.9958C132.268 33.0847 132.44 32.1166 132.44 31.0916V31.0347C132.44 30.0097 132.268 29.0416 131.925 28.1305C131.583 27.2194 131.068 26.4222 130.44 25.7958C129.811 25.1125 129.069 24.6 128.154 24.2014C127.297 23.8027 126.326 23.6319 125.298 23.6319C124.269 23.6319 123.298 23.8027 122.441 24.2014C121.584 24.6 120.841 25.1125 120.213 25.7958C119.584 26.4791 119.127 27.2764 118.727 28.1305C118.384 29.0416 118.213 30.0097 118.213 31.0347V31.0916C118.213 32.1166 118.384 33.0847 118.727 33.9958C119.07 34.9069 119.584 35.7041 120.213 36.3305C120.841 37.0139 121.584 37.5264 122.498 37.925C123.355 38.2666 124.326 38.4944 125.355 38.4944ZM125.298 40.3736C123.926 40.3736 122.669 40.1458 121.527 39.6333C120.384 39.1208 119.413 38.4375 118.613 37.5833C117.813 36.7291 117.184 35.7611 116.727 34.6222C116.27 33.4833 116.042 32.2875 116.042 31.0916V31.0347C116.042 29.7819 116.27 28.5861 116.727 27.4472C117.184 26.3083 117.813 25.3402 118.613 24.4861C119.413 23.6319 120.384 22.9486 121.527 22.4361C122.669 21.9236 123.926 21.6958 125.298 21.6958C126.669 21.6958 127.926 21.9236 129.069 22.4361C130.211 22.9486 131.183 23.6319 131.983 24.4861C132.782 25.3402 133.411 26.3083 133.868 27.4472C134.325 28.5861 134.554 29.7819 134.554 30.9777V31.0347C134.554 32.2875 134.325 33.4833 133.868 34.6222C133.411 35.7611 132.782 36.7291 131.983 37.5833C131.183 38.4375 130.211 39.1208 129.069 39.6333C127.926 40.0889 126.669 40.3736 125.298 40.3736ZM141.181 21.9805H143.238V32.743L153.694 21.9805H156.322L148.552 29.8958L156.665 40.0889H154.094L147.123 31.3194L143.238 35.1916V40.0319H141.181V21.9805ZM162.15 21.9805H175.234V23.8027H164.15V30.0097H174.034V31.8889H164.15V38.2666H175.348V40.0889H162.093V21.9805H162.15ZM181.805 21.9805H183.747L195.174 36.4444V21.9805H197.174V40.0319H195.517L183.804 25.2264V40.0319H181.805V21.9805ZM210.829 40.3166C209.401 40.3166 208.03 40.0889 206.83 39.6333C205.63 39.1777 204.487 38.4375 203.402 37.4694L204.659 35.9889C205.63 36.843 206.544 37.4694 207.515 37.925C208.487 38.3236 209.572 38.5514 210.829 38.5514C212.029 38.5514 213.058 38.2666 213.743 37.6972C214.486 37.1277 214.829 36.3875 214.829 35.4764V35.4194C214.829 35.0208 214.772 34.6222 214.6 34.2805C214.486 33.9389 214.2 33.6541 213.857 33.3694C213.515 33.0847 213.058 32.8569 212.429 32.6291C211.801 32.4014 211.058 32.1736 210.087 32.0027C209.058 31.775 208.144 31.5472 207.401 31.2055C206.601 30.9208 205.973 30.5791 205.516 30.1236C205.002 29.725 204.659 29.2125 204.373 28.7C204.144 28.1305 204.03 27.5041 204.03 26.7639V26.7069C204.03 26.0236 204.202 25.3402 204.487 24.7708C204.773 24.1444 205.173 23.6319 205.744 23.2333C206.258 22.7777 206.887 22.4361 207.63 22.2083C208.372 21.9805 209.172 21.8097 210.029 21.8097C211.344 21.8097 212.543 21.9805 213.515 22.3791C214.486 22.7208 215.457 23.2902 216.429 24.0305L215.229 25.625C214.372 24.9416 213.515 24.4291 212.658 24.1444C211.801 23.8597 210.886 23.6889 209.972 23.6889C208.772 23.6889 207.858 23.9736 207.173 24.543C206.487 25.1125 206.144 25.7958 206.144 26.593V26.65C206.144 27.1055 206.201 27.4472 206.373 27.7889C206.487 28.1305 206.773 28.4152 207.116 28.7C207.458 28.9847 207.973 29.2694 208.601 29.4972C209.23 29.725 210.087 29.9527 211.058 30.1805C213.058 30.6361 214.543 31.2625 215.514 32.0597C216.486 32.8569 216.943 33.9389 216.943 35.3055V35.3625C216.943 36.1597 216.771 36.843 216.486 37.4694C216.2 38.0958 215.743 38.6083 215.229 39.0639C214.715 39.5194 214.029 39.8611 213.286 40.0889C212.543 40.2028 211.686 40.3166 210.829 40.3166Z" fill="#104378"/>
</svg>
