<svg width="34" height="34" viewBox="0 0 34 34" fill="none" xmlns="http://www.w3.org/2000/svg">
<path fill-rule="evenodd" clip-rule="evenodd" d="M17.7737 32.2048C20.6548 30.7105 30.6004 24.846 30.6004 15.1C30.6004 7.58893 24.5115 1.5 17.0004 1.5C9.48932 1.5 3.40039 7.58893 3.40039 15.1C3.40039 24.846 13.3459 30.7105 16.2271 32.2048C16.7183 32.4597 17.2824 32.4597 17.7737 32.2048ZM17.0004 20.9286C20.2194 20.9286 22.829 18.319 22.829 15.1C22.829 11.881 20.2194 9.27143 17.0004 9.27143C13.7814 9.27143 11.1718 11.881 11.1718 15.1C11.1718 18.319 13.7814 20.9286 17.0004 20.9286Z" fill="black"/>
</svg>
