<svg width="34" height="34" viewBox="0 0 34 34" fill="none" xmlns="http://www.w3.org/2000/svg">
<path fill-rule="evenodd" clip-rule="evenodd" d="M15.3798 11.8119C16.1138 10.8227 16.377 9.78028 15.5469 8.86011C13.684 6.25347 12.4312 4.64154 11.6454 3.86527C10.1514 2.38948 7.69384 2.5891 6.39996 3.864C5.705 4.54877 5.46973 4.78392 4.75617 5.5087C0.781495 9.48551 3.20546 17.8923 9.64923 24.3424C16.0915 30.7911 24.4976 33.2163 28.4806 29.2311C29.139 28.5963 29.6965 28.0385 30.1362 27.5738C31.4042 26.2336 31.5967 23.8844 30.1279 22.3583C29.3748 21.5758 27.8377 20.3835 25.1214 18.4405C24.2895 17.6966 23.3031 17.8578 22.3987 18.4511C21.9637 18.7365 21.6471 19.0252 21.0494 19.6236L19.9639 20.7097C19.8209 20.8528 17.8795 19.8805 15.9949 17.9941C14.1094 16.1067 13.1378 14.1652 13.2801 14.0229C13.5735 13.7295 13.9356 13.3672 14.3663 12.936C14.556 12.7462 14.6467 12.6543 14.763 12.5321C15.0052 12.2774 15.2058 12.0464 15.3798 11.8119ZM21.9662 22.7141L23.0519 21.6278C23.3809 21.2985 23.5942 21.096 23.7676 20.9564C26.1471 22.6652 27.5252 23.7397 28.0881 24.3245C28.426 24.6757 28.3735 25.3164 28.0798 25.627C27.6732 26.0567 27.1449 26.5852 26.4967 27.2104C23.9212 29.7871 17.1356 27.8293 11.652 22.3404C6.16671 16.8497 4.20993 10.0631 6.76604 7.50557C7.47673 6.78377 7.70189 6.55871 8.38693 5.88373C8.64378 5.63064 9.34341 5.57381 9.65586 5.88247C10.2609 6.48012 11.3832 7.91712 13.0341 10.2169C12.9486 10.323 12.8419 10.4429 12.712 10.5794C12.6166 10.6796 12.5372 10.7601 12.3635 10.9339C11.9331 11.3648 11.5714 11.7267 11.2784 12.0197C9.43222 13.8657 11.0045 17.0075 13.9921 19.9981C16.9778 22.9867 20.1207 24.5607 21.9662 22.7141Z" fill="black"/>
</svg>
