<svg width="34" height="34" viewBox="0 0 34 34" fill="none" xmlns="http://www.w3.org/2000/svg">
<path fill-rule="evenodd" clip-rule="evenodd" d="M11.8969 6.6997C8.16286 8.50859 5.58789 12.3347 5.58789 16.7623C5.58789 17.0373 5.59783 17.3101 5.61736 17.5801L14.1964 15.2814L11.8969 6.6997ZM15.9452 5.61708L18.4249 14.8714L18.4412 14.932C18.511 15.1914 18.6095 15.5573 18.6527 15.8928C18.7072 16.3156 18.72 16.9844 18.3265 17.6659C17.9331 18.3474 17.3475 18.6707 16.9541 18.8349C16.6419 18.9652 16.2758 19.0629 16.0162 19.1321L15.9556 19.1483L6.70013 21.6283C8.50909 25.3622 12.3351 27.937 16.7626 27.937C22.9342 27.937 27.9372 22.9339 27.9372 16.7623C27.9372 10.5907 22.9342 5.58765 16.7626 5.58765C16.4877 5.58765 16.2151 5.59757 15.9452 5.61708Z" fill="#EBB024"/>
<path d="M14.0674 6.05364C13.7119 4.72682 13.5341 4.06342 12.9218 3.78735C12.3096 3.51129 11.7692 3.78021 10.6885 4.31807C9.87522 4.72285 9.10076 5.20591 8.37653 5.76163C6.90058 6.89416 5.66216 8.30632 4.73196 9.91747C3.80176 11.5286 3.19801 13.3072 2.95518 15.1517C2.83603 16.0567 2.80492 16.969 2.86103 17.8757C2.93558 19.0805 2.97286 19.683 3.51806 20.0752C4.06327 20.4674 4.72668 20.2896 6.05349 19.9341L14.2639 17.7341C15.554 17.3884 16.1991 17.2156 16.4925 16.7074C16.7859 16.1992 16.613 15.5541 16.2673 14.264L14.0674 6.05364Z" fill="#EB4C24"/>
</svg>
