<svg width="34" height="34" viewBox="0 0 34 34" fill="none" xmlns="http://www.w3.org/2000/svg">
<path fill-rule="evenodd" clip-rule="evenodd" d="M3.54199 3.54175H14.167V7.79175H10.7972L18.5029 15.4975C19.3328 16.3273 19.3328 17.6728 18.5029 18.5027C17.6731 19.3325 16.3276 19.3325 15.4977 18.5027L7.79199 10.797V14.1667H3.54199V3.54175Z" fill="black"/>
<path fill-rule="evenodd" clip-rule="evenodd" d="M3.54199 30.4584H14.167V26.2084H10.7972L18.5029 18.5027C19.3328 17.6728 19.3328 16.3273 18.5029 15.4975C17.6731 14.6676 16.3276 14.6676 15.4977 15.4975L7.79199 23.2032V19.8334H3.54199V30.4584Z" fill="black"/>
<path fill-rule="evenodd" clip-rule="evenodd" d="M30.4587 3.54175H19.8337V7.79175H23.2035L15.4977 15.4975C14.6679 16.3273 14.6679 17.6728 15.4977 18.5027C16.3276 19.3325 17.6731 19.3325 18.5029 18.5027L26.2087 10.797V14.1667H30.4587V3.54175Z" fill="black"/>
<path fill-rule="evenodd" clip-rule="evenodd" d="M30.4587 30.4584H19.8337V26.2084H23.2035L15.4977 18.5027C14.6679 17.6728 14.6679 16.3273 15.4977 15.4975C16.3276 14.6676 17.6731 14.6676 18.5029 15.4975L26.2087 23.2032V19.8334H30.4587V30.4584Z" fill="black"/>
</svg>
