<svg width="34" height="34" viewBox="0 0 34 34" fill="none" xmlns="http://www.w3.org/2000/svg">
<path fill-rule="evenodd" clip-rule="evenodd" d="M15.3811 5.66656C10.016 5.66656 5.66681 10.0158 5.66681 15.3808C5.66681 20.7459 10.016 25.0951 15.3811 25.0951C20.7461 25.0951 25.0954 20.7459 25.0954 15.3808C25.0954 10.0158 20.7461 5.66656 15.3811 5.66656ZM2.42871 15.3808C2.42871 8.22745 8.22769 2.42847 15.3811 2.42847C22.5345 2.42847 28.3335 8.22745 28.3335 15.3808C28.3335 18.4629 27.257 21.2936 25.4594 23.5173C25.7456 23.5831 26.0173 23.7274 26.2402 23.9503L31.0974 28.8074C31.7296 29.4397 31.7296 30.4648 31.0974 31.0971C30.4651 31.7294 29.44 31.7294 28.8077 31.0971L23.9505 26.24C23.7276 26.0171 23.5833 25.7453 23.5176 25.4592C21.2938 27.2567 18.4632 28.3332 15.3811 28.3332C8.22769 28.3332 2.42871 22.5343 2.42871 15.3808ZM12.9028 9.39763C13.6885 9.07217 14.5306 8.90466 15.3811 8.90466C16.2753 8.90466 17.0001 9.62953 17.0001 10.5237C17.0001 11.4179 16.2753 12.1428 15.3811 12.1428C14.9559 12.1428 14.5348 12.2265 14.1419 12.3892C13.7491 12.552 13.3921 12.7905 13.0914 13.0912C12.7907 13.3919 12.5522 13.7488 12.3895 14.1417C12.2268 14.5345 12.143 14.9556 12.143 15.3808C12.143 16.275 11.4181 16.9999 10.5239 16.9999C9.62977 16.9999 8.9049 16.275 8.9049 15.3808C8.9049 14.5304 9.07241 13.6882 9.39787 12.9025C9.72333 12.1168 10.2004 11.4029 10.8017 10.8015C11.4031 10.2001 12.117 9.72309 12.9028 9.39763Z" fill="black"/>
</svg>
