<svg width="34" height="34" viewBox="0 0 34 34" fill="none" xmlns="http://www.w3.org/2000/svg">
<path d="M31 7.94401C29.9701 8.39974 28.8626 8.70964 27.7005 8.84635C28.8854 8.13542 29.7969 7.00977 30.2253 5.66992C29.1178 6.32617 27.8874 6.80469 26.5794 7.06445C25.5313 5.94792 24.0365 5.24609 22.3867 5.24609C19.2148 5.24609 16.64 7.82096 16.64 10.9928C16.64 11.444 16.6901 11.8815 16.7904 12.3008C12.0143 12.0638 7.7806 9.77604 4.95052 6.29883C4.45378 7.14648 4.17122 8.13542 4.17122 9.18815C4.17122 11.1797 5.18294 12.9388 6.72787 13.9688C5.78451 13.9369 4.90039 13.6816 4.12565 13.2487C4.12565 13.276 4.12565 13.2988 4.12565 13.3216C4.12565 16.1061 6.10352 18.4303 8.73307 18.9544C8.25 19.0866 7.74414 19.1595 7.22005 19.1595C6.85091 19.1595 6.48633 19.123 6.13997 19.0547C6.86914 21.3379 8.99284 22.9967 11.5039 23.0469C9.53972 24.5872 7.06055 25.5033 4.37174 25.5033C3.9069 25.5033 3.45117 25.4759 3 25.4212C5.54297 27.0527 8.5599 28.0052 11.8047 28.0052C22.373 28.0052 28.1517 19.2507 28.1517 11.6582C28.1517 11.4121 28.1426 11.1615 28.1335 10.9154C29.2546 10.1042 30.2298 9.09245 31 7.94401Z" fill="black"/>
</svg>
