<svg width="34" height="34" viewBox="0 0 34 34" fill="none" xmlns="http://www.w3.org/2000/svg">
<path d="M32.0478 8.95512C31.7531 7.32873 30.3491 6.14432 28.7199 5.77456C26.2817 5.25746 21.7694 4.8877 16.8873 4.8877C12.0082 4.8877 7.42363 5.25746 4.9826 5.77456C3.35621 6.14432 1.94936 7.25362 1.6547 8.95512C1.35716 10.804 1.0625 13.3923 1.0625 16.7202C1.0625 20.0481 1.35716 22.6365 1.72692 24.4853C2.02447 26.1117 3.42843 27.2961 5.05482 27.6659C7.64318 28.183 12.0804 28.5527 16.9624 28.5527C21.8445 28.5527 26.2817 28.183 28.8701 27.6659C30.4965 27.2961 31.9004 26.1868 32.198 24.4853C32.4926 22.6365 32.8624 19.973 32.9375 16.7202C32.7873 13.3923 32.4175 10.804 32.0478 8.95512ZM12.895 21.8969V11.5435L21.9167 16.7202L12.895 21.8969Z" fill="black"/>
</svg>
