<svg width="217" height="41" viewBox="0 0 217 41" fill="none" xmlns="http://www.w3.org/2000/svg">
<path fill-rule="evenodd" clip-rule="evenodd" d="M83.3033 13.7236V40.6583H87.9313V5.75139L80.2751 0V12.0153L82.1035 13.0403L83.3033 13.7236Z" fill="#2491EB"/>
<path fill-rule="evenodd" clip-rule="evenodd" d="M79.2467 40.6583V12.5847L77.4184 13.6097V40.6583H79.2467Z" fill="#104378"/>
<path fill-rule="evenodd" clip-rule="evenodd" d="M76.39 40.6583V14.2361L74.5616 15.2611V40.6583H76.39Z" fill="#104378"/>
<path fill-rule="evenodd" clip-rule="evenodd" d="M73.5332 40.6583V15.8875L71.7048 16.9125V40.6583H73.5332Z" fill="#104378"/>
<path fill-rule="evenodd" clip-rule="evenodd" d="M9.88441 25.5111C8.85598 27.9597 3.48526 40.6583 3.42812 40.6583H0L8.39889 21.525H11.4842L19.8831 40.6583H16.3407C14.2267 35.5903 12.0556 30.5792 9.88441 25.5111ZM33.4242 37.6972C34.5669 37.6972 35.481 37.4694 36.1095 37.0708C36.738 36.6153 37.0808 35.9889 37.0808 35.1347V35.0778C37.0808 34.2805 36.738 33.6542 36.1095 33.1986C35.481 32.743 34.5097 32.5153 33.1385 32.5153H27.8249V37.7542H33.4242V37.6972ZM32.4529 29.668C33.5384 29.668 34.3955 29.4403 35.0811 29.0417C35.7096 28.643 36.0524 27.9597 36.0524 27.1055V27.0486C36.0524 26.3083 35.7667 25.6819 35.1954 25.2833C34.624 24.8847 33.8241 24.6569 32.6814 24.6569H27.882V29.725H32.4529V29.668ZM24.5682 21.6958H33.0814C35.2525 21.6958 36.9094 22.2653 38.0521 23.4042C38.9092 24.2583 39.3091 25.2833 39.3091 26.5361V26.593C39.3091 27.1625 39.252 27.675 39.0806 28.1305C38.9092 28.5861 38.7378 28.9847 38.5092 29.3264C38.2807 29.668 37.995 29.9528 37.6522 30.1805C37.3094 30.4083 36.9666 30.6361 36.6237 30.8069C37.1951 30.9778 37.7093 31.2625 38.1664 31.4903C38.6235 31.775 39.0234 32.0597 39.3662 32.4014C39.7091 32.743 39.9376 33.1986 40.1661 33.6542C40.3375 34.1667 40.4518 34.7361 40.4518 35.3625V35.4194C40.4518 36.2736 40.2804 37.0139 39.9376 37.6972C39.5948 38.3236 39.1377 38.893 38.5092 39.3486C37.8807 39.8042 37.138 40.0889 36.2809 40.3167C35.4239 40.5444 34.4526 40.6583 33.4242 40.6583H24.5682V21.6958ZM54.5071 41C53.1359 41 51.8217 40.7722 50.6219 40.2597C49.4221 39.7472 48.3936 39.0639 47.5366 38.2097C46.6796 37.3555 45.9939 36.2736 45.4797 35.0778C44.9655 33.8819 44.737 32.6292 44.737 31.2625V31.2055C44.737 29.8389 44.9655 28.5861 45.4797 27.3903C45.9939 26.1944 46.6224 25.1694 47.5366 24.2583C48.3936 23.3472 49.4792 22.6639 50.679 22.1514C51.8789 21.6389 53.193 21.3542 54.6785 21.3542C55.5355 21.3542 56.3354 21.4111 57.0782 21.5819C57.821 21.7528 58.4494 21.9236 59.0779 22.2083C59.6493 22.493 60.2206 22.7778 60.7349 23.1194C61.2491 23.4611 61.7062 23.8597 62.1632 24.3153L59.9921 26.7639C59.2493 26.0805 58.4494 25.5111 57.5924 25.0555C56.7354 24.6 55.7641 24.4292 54.6785 24.4292C53.7643 24.4292 52.9073 24.6 52.1646 24.9417C51.3647 25.2833 50.7362 25.7958 50.1648 26.3653C49.5935 26.9917 49.1935 27.675 48.8507 28.4722C48.565 29.2694 48.3936 30.1805 48.3936 31.0917V31.1486C48.3936 32.0597 48.565 32.9708 48.8507 33.768C49.1364 34.5653 49.5935 35.3055 50.1648 35.9319C50.7362 36.5583 51.4218 37.0139 52.1646 37.4125C52.9645 37.7542 53.7643 37.925 54.6785 37.925C55.8212 37.925 56.8497 37.6972 57.6496 37.2417C58.5066 36.7861 59.3065 36.2167 60.1064 35.4194L62.2775 37.5833C61.7633 38.0958 61.2491 38.5514 60.7349 39.0069C60.2206 39.4055 59.6493 39.7472 59.0208 40.0889C58.3923 40.3736 57.7067 40.6014 56.9639 40.7722C56.2212 40.943 55.3641 41 54.5071 41Z" fill="#2491EB"/>
<path fill-rule="evenodd" clip-rule="evenodd" d="M102.558 23.8597H96.4445V21.9806H110.671V23.8597H104.558V40.0319H102.501V23.8597H102.558ZM125.355 38.4944C126.383 38.4944 127.355 38.3236 128.212 37.925C129.069 37.5264 129.812 37.0139 130.44 36.3306C131.068 35.6472 131.526 34.85 131.926 33.9958C132.268 33.0847 132.44 32.1167 132.44 31.0917V31.0347C132.44 30.0097 132.268 29.0417 131.926 28.1306C131.583 27.2194 131.068 26.4222 130.44 25.7958C129.812 25.1125 129.069 24.6 128.155 24.2014C127.298 23.8028 126.326 23.6319 125.298 23.6319C124.269 23.6319 123.298 23.8028 122.441 24.2014C121.584 24.6 120.841 25.1125 120.213 25.7958C119.584 26.4792 119.127 27.2764 118.727 28.1306C118.384 29.0417 118.213 30.0097 118.213 31.0347V31.0917C118.213 32.1167 118.384 33.0847 118.727 33.9958C119.07 34.9069 119.584 35.7042 120.213 36.3306C120.841 37.0139 121.584 37.5264 122.498 37.925C123.355 38.2667 124.327 38.4944 125.355 38.4944ZM125.298 40.3736C123.927 40.3736 122.67 40.1458 121.527 39.6333C120.384 39.1208 119.413 38.4375 118.613 37.5833C117.813 36.7292 117.185 35.7611 116.728 34.6222C116.27 33.4833 116.042 32.2875 116.042 31.0917V31.0347C116.042 29.7819 116.27 28.5861 116.728 27.4472C117.185 26.3083 117.813 25.3403 118.613 24.4861C119.413 23.6319 120.384 22.9486 121.527 22.4361C122.67 21.9236 123.927 21.6958 125.298 21.6958C126.669 21.6958 127.926 21.9236 129.069 22.4361C130.211 22.9486 131.183 23.6319 131.983 24.4861C132.783 25.3403 133.411 26.3083 133.868 27.4472C134.325 28.5861 134.554 29.7819 134.554 30.9778V31.0347C134.554 32.2875 134.325 33.4833 133.868 34.6222C133.411 35.7611 132.783 36.7292 131.983 37.5833C131.183 38.4375 130.211 39.1208 129.069 39.6333C127.926 40.0889 126.669 40.3736 125.298 40.3736ZM141.181 21.9806H143.238V32.7431L153.694 21.9806H156.322L148.552 29.8958L156.665 40.0889H154.094L147.124 31.3194L143.238 35.1917V40.0319H141.181V21.9806ZM162.15 21.9806H175.234V23.8028H164.15V30.0097H174.034V31.8889H164.15V38.2667H175.348V40.0889H162.093V21.9806H162.15ZM181.805 21.9806H183.747L195.174 36.4444V21.9806H197.174V40.0319H195.517L183.804 25.2264V40.0319H181.805V21.9806ZM210.829 40.3167C209.401 40.3167 208.03 40.0889 206.83 39.6333C205.63 39.1778 204.487 38.4375 203.402 37.4694L204.659 35.9889C205.63 36.8431 206.544 37.4694 207.516 37.925C208.487 38.3236 209.572 38.5514 210.829 38.5514C212.029 38.5514 213.058 38.2667 213.743 37.6972C214.486 37.1278 214.829 36.3875 214.829 35.4764V35.4194C214.829 35.0208 214.772 34.6222 214.6 34.2806C214.486 33.9389 214.2 33.6542 213.858 33.3694C213.515 33.0847 213.058 32.8569 212.429 32.6292C211.801 32.4014 211.058 32.1736 210.087 32.0028C209.058 31.775 208.144 31.5472 207.401 31.2056C206.601 30.9208 205.973 30.5792 205.516 30.1236C205.002 29.725 204.659 29.2125 204.373 28.7C204.145 28.1306 204.03 27.5042 204.03 26.7639V26.7069C204.03 26.0236 204.202 25.3403 204.487 24.7708C204.773 24.1444 205.173 23.6319 205.744 23.2333C206.259 22.7778 206.887 22.4361 207.63 22.2083C208.373 21.9806 209.173 21.8097 210.03 21.8097C211.344 21.8097 212.543 21.9806 213.515 22.3792C214.486 22.7208 215.457 23.2903 216.429 24.0306L215.229 25.625C214.372 24.9417 213.515 24.4292 212.658 24.1444C211.801 23.8597 210.887 23.6889 209.972 23.6889C208.773 23.6889 207.858 23.9736 207.173 24.5431C206.487 25.1125 206.144 25.7958 206.144 26.5931V26.65C206.144 27.1056 206.201 27.4472 206.373 27.7889C206.487 28.1306 206.773 28.4153 207.116 28.7C207.458 28.9847 207.973 29.2694 208.601 29.4972C209.23 29.725 210.087 29.9528 211.058 30.1806C213.058 30.6361 214.543 31.2625 215.515 32.0597C216.486 32.8569 216.943 33.9389 216.943 35.3056V35.3625C216.943 36.1597 216.771 36.8431 216.486 37.4694C216.2 38.0958 215.743 38.6083 215.229 39.0639C214.715 39.5194 214.029 39.8611 213.286 40.0889C212.543 40.2028 211.686 40.3167 210.829 40.3167Z" fill="#104378"/>
</svg>
