<svg width="21" height="21" viewBox="0 0 21 21" fill="none" xmlns="http://www.w3.org/2000/svg">
<g opacity="0.7">
<path d="M16.0208 2.92878C16.4113 2.53826 17.0445 2.53826 17.435 2.92878C17.8256 3.3193 17.8256 3.95247 17.435 4.34299L4.70711 17.0709C4.31658 17.4614 3.68342 17.4614 3.29289 17.0709C2.90237 16.6804 2.90237 16.0472 3.29289 15.6567L16.0208 2.92878Z" fill="#104378"/>
<path d="M3.29297 4.34285C2.90245 3.95232 2.90244 3.31916 3.29297 2.92864C3.68349 2.53811 4.31666 2.53811 4.70718 2.92864L17.4351 15.6566C17.8256 16.0471 17.8256 16.6802 17.4351 17.0708C17.0446 17.4613 16.4114 17.4613 16.0209 17.0708L3.29297 4.34285Z" fill="#104378"/>
</g>
</svg>
