<svg width="38" height="38" viewBox="0 0 38 38" fill="none" xmlns="http://www.w3.org/2000/svg">
<g clip-path="url(#clip0)">
<path d="M37.4301 23.5961C34.8924 33.7747 24.5832 39.9693 14.4033 37.4311C4.22763 34.8934 -1.96696 24.5835 0.571913 14.4054C3.10841 4.22558 13.4177 -1.9696 23.5946 0.568084C33.7738 3.10577 39.9678 13.4168 37.4301 23.5961Z" fill="#F7931A"/>
<path d="M27.3774 16.2931C27.7556 13.765 25.8307 12.4059 23.1986 11.4992L24.0524 8.07446L21.9677 7.55492L21.1365 10.8894C20.5885 10.7529 20.0256 10.624 19.4663 10.4964L20.3035 7.13989L18.22 6.62036L17.3656 10.0439C16.912 9.94061 16.4667 9.83849 16.0344 9.73102L16.0368 9.72033L13.1618 9.00249L12.6073 11.229C12.6073 11.229 14.154 11.5835 14.1213 11.6055C14.9657 11.8163 15.1182 12.375 15.0927 12.8179L14.1202 16.7195C14.1783 16.7343 14.2537 16.7557 14.3369 16.7889C14.2674 16.7717 14.1932 16.7527 14.1166 16.7343L12.7533 22.1998C12.65 22.4563 12.3882 22.841 11.798 22.695C11.8188 22.7252 10.2827 22.3167 10.2827 22.3167L9.24784 24.703L11.9607 25.3793C12.4654 25.5058 12.96 25.6382 13.4468 25.7629L12.5841 29.2268L14.6664 29.7463L15.5208 26.3192C16.0896 26.4736 16.6418 26.6161 17.1821 26.7503L16.3307 30.1614L18.4153 30.6809L19.2781 27.2235C22.8328 27.8962 25.5059 27.6249 26.6311 24.4097C27.5377 21.821 26.5859 20.3277 24.7156 19.3539C26.0777 19.0398 27.1037 18.1439 27.3774 16.2931ZM22.6143 22.9722C21.9701 25.561 17.6114 24.1615 16.1983 23.8106L17.343 19.2215C18.7562 19.5742 23.2877 20.2725 22.6143 22.9722ZM23.2592 16.2557C22.6713 18.6105 19.0435 17.4141 17.8667 17.1208L18.9046 12.9586C20.0814 13.252 23.8713 13.7994 23.2592 16.2557Z" fill="white"/>
</g>
<defs>
<clipPath id="clip0">
<rect width="38" height="38" fill="white"/>
</clipPath>
</defs>
</svg>
