<svg width="39" height="38" viewBox="0 0 39 38" fill="none" xmlns="http://www.w3.org/2000/svg">
<g clip-path="url(#clip0)">
<path d="M19.7191 0C30.2135 0 38.7191 8.50733 38.7191 19C38.7191 29.4944 30.2135 38 19.7191 38C9.22644 38 0.719101 29.4935 0.719101 19C0.719101 8.50733 9.22644 0 19.7191 0Z" fill="#F5AC37"/>
<path d="M20.4194 20.3417H27.6391C27.793 20.3417 27.8657 20.3417 27.8768 20.1399C27.9358 19.4054 27.9358 18.6667 27.8768 17.9314C27.8768 17.7886 27.8059 17.7296 27.6511 17.7296H13.2827C13.1048 17.7296 13.057 17.7886 13.057 17.9553V20.0689C13.057 20.3417 13.057 20.3417 13.3417 20.3417H20.4194ZM27.0706 15.2595C27.0911 15.2056 27.0911 15.1466 27.0706 15.0936C26.95 14.8311 26.8072 14.5806 26.6413 14.3455C26.3917 13.9436 26.0976 13.5734 25.7624 13.2408C25.6042 13.0399 25.4212 12.8595 25.216 12.7064C24.1883 11.8318 22.9665 11.2127 21.6532 10.9015C20.9906 10.7527 20.3134 10.6818 19.6345 10.6878H13.2579C13.08 10.6878 13.0561 10.7587 13.0561 10.9135V15.1287C13.0561 15.3065 13.0561 15.3544 13.2818 15.3544H26.9851C26.9851 15.3544 27.1039 15.3305 27.1278 15.2595H27.0697H27.0706ZM27.0706 22.8118C26.8688 22.7896 26.6653 22.7896 26.4635 22.8118H13.2947C13.1168 22.8118 13.057 22.8118 13.057 23.0495V27.1706C13.057 27.3604 13.057 27.4083 13.2947 27.4083H19.3746C19.6653 27.4305 19.956 27.41 20.2407 27.3493C21.1231 27.286 21.9909 27.0945 22.8186 26.779C23.1196 26.6747 23.4103 26.5388 23.6847 26.3755H23.7677C25.193 25.6342 26.3506 24.4696 27.0808 23.0401C27.0808 23.0401 27.1637 22.8605 27.0706 22.8135V22.8118ZM10.6706 29.545V29.474V26.7072V25.7693V22.9785C10.6706 22.8238 10.6706 22.8007 10.4808 22.8007H7.90382C7.76104 22.8007 7.70204 22.8007 7.70204 22.6109V20.3545H10.4569C10.6108 20.3545 10.6706 20.3545 10.6706 20.1527V17.9203C10.6706 17.7775 10.6706 17.7424 10.4808 17.7424H7.90382C7.76104 17.7424 7.70204 17.7424 7.70204 17.5526V15.463C7.70204 15.3322 7.70204 15.2971 7.89185 15.2971H10.4449C10.6228 15.2971 10.6706 15.2971 10.6706 15.0714V8.6708C10.6706 8.48099 10.6706 8.43311 10.9083 8.43311H19.8141C20.4605 8.45876 21.1026 8.52972 21.7379 8.64686C23.0469 8.88883 24.3046 9.35651 25.4546 10.0243C26.2173 10.4732 26.9192 11.0152 27.5442 11.6394C28.0145 12.1276 28.4386 12.656 28.8148 13.2186C29.1884 13.7889 29.4988 14.3985 29.7425 15.0355C29.7724 15.2014 29.9314 15.3134 30.0973 15.2851H32.2228C32.4956 15.2851 32.4956 15.2851 32.5076 15.5468V17.4945C32.5076 17.6843 32.4366 17.7322 32.2459 17.7322H30.6069C30.441 17.7322 30.3931 17.7322 30.4051 17.9459C30.4701 18.6693 30.4701 19.3952 30.4051 20.1185C30.4051 20.3203 30.4051 20.3442 30.6317 20.3442H32.5067C32.5896 20.4511 32.5067 20.558 32.5067 20.6657C32.5187 20.8034 32.5187 20.9427 32.5067 21.0804V22.5177C32.5067 22.7194 32.4477 22.7793 32.269 22.7793H30.0246C29.8681 22.7494 29.7159 22.8494 29.68 23.005C29.1457 24.3944 28.2906 25.6402 27.186 26.6388C26.7824 27.0022 26.3583 27.3442 25.9154 27.6597C25.4401 27.9333 24.9775 28.218 24.4901 28.4437C23.5932 28.8473 22.6527 29.1448 21.6874 29.3338C20.7708 29.4979 19.8415 29.5723 18.9086 29.5595H10.6672V29.5475L10.6706 29.545Z" fill="#FEFEFD"/>
</g>
<defs>
<clipPath id="clip0">
<rect width="38" height="38" fill="white" transform="translate(0.719101)"/>
</clipPath>
</defs>
</svg>
