<svg width="25" height="40" viewBox="0 0 25 40" fill="none" xmlns="http://www.w3.org/2000/svg">
<g clip-path="url(#clip0)">
<path d="M0.00140381 20.0211L12.4381 13.3896L24.7145 19.973L12.4488 26.6102L0.00140381 20.0211Z" fill="#009F42"/>
<path d="M0.00140381 20.0211L12.4381 13.3896L24.7145 19.973L12.4488 26.6102L0.00140381 20.0211Z" fill="#01C853"/>
<path d="M12.4381 13.3896L24.7145 19.973L12.4488 26.6102L12.4381 13.3896Z" fill="#009F42"/>
<path d="M12.4381 21.0381L24.7145 19.9729L12.4488 26.6101L12.4381 21.0381H12.4381Z" fill="#007831"/>
<path d="M12.4381 21.0383L0.00140381 20.0212L12.4274 26.6103L12.4381 21.0383H12.4381Z" fill="#009F42"/>
<path d="M0 21.7847C4.35639 24.0935 8.89574 26.5135 12.4103 28.3847L24.7191 21.7865C20.2625 28.4036 16.5502 33.9078 12.4102 40C8.26514 33.9205 3.6849 27.2101 0 21.7847Z" fill="#009F42"/>
<path d="M0 21.7847C4.35639 24.0935 8.89574 26.5135 12.4103 28.3847L24.7191 21.7865C20.2625 28.4036 16.5502 33.9078 12.4102 40C8.26514 33.9205 3.6849 27.2101 0 21.7847Z" fill="#01C853"/>
<path d="M12.4103 28.3845L24.7191 21.7864C20.2625 28.4035 12.4102 39.9998 12.4102 39.9998L12.4103 28.3845Z" fill="#009F42"/>
<path d="M12.4103 28.3845L24.7191 21.7864C20.2625 28.4035 16.5502 33.9076 12.4102 39.9998L12.4103 28.3845Z" fill="#009F42"/>
<path d="M12.4087 11.5455L0.00226593 18.0732L12.3548 0L24.7153 18.1127L12.4087 11.5455Z" fill="#01C853"/>
<path d="M12.4079 11.5455L12.354 0L24.7145 18.1127L12.4079 11.5455Z" fill="#009F42"/>
</g>
<defs>
<clipPath id="clip0">
<rect width="24.7191" height="40" fill="white"/>
</clipPath>
</defs>
</svg>
