<svg width="24" height="24" viewBox="0 0 24 24" fill="none" xmlns="http://www.w3.org/2000/svg">
<circle cx="12" cy="12" r="12" fill="#BCF4D4"/>
<g clip-path="url(#clip0)">
<path d="M7.50049 12.0081L12.0286 9.35547L16.4983 11.9888L12.0325 14.6437L7.50049 12.0081Z" fill="#009F42"/>
<path d="M7.50049 12.0081L12.0286 9.35547L16.4983 11.9888L12.0325 14.6437L7.50049 12.0081Z" fill="#01C853"/>
<path d="M12.0286 9.35547L16.4983 11.9888L12.0324 14.6437L12.0286 9.35547Z" fill="#009F42"/>
<path d="M12.0286 12.4153L16.4983 11.9893L12.0324 14.6441L12.0286 12.4153H12.0286Z" fill="#007831"/>
<path d="M12.0286 12.4146L7.50049 12.0078L12.0247 14.6434L12.0286 12.4146H12.0286Z" fill="#009F42"/>
<path d="M7.5 12.7139C9.08612 13.6374 10.7389 14.6054 12.0185 15.3539L16.5 12.7146C14.8774 15.3615 13.5258 17.5631 12.0185 20C10.5093 17.5682 8.84164 14.884 7.5 12.7139Z" fill="#009F42"/>
<path d="M7.5 12.7139C9.08612 13.6374 10.7389 14.6054 12.0185 15.3539L16.5 12.7146C14.8774 15.3615 13.5258 17.5631 12.0185 20C10.5093 17.5682 8.84164 14.884 7.5 12.7139Z" fill="#01C853"/>
<path d="M12.0185 15.3541L16.5 12.7148C14.8774 15.3617 12.0184 20.0002 12.0184 20.0002L12.0185 15.3541Z" fill="#009F42"/>
<path d="M12.0185 15.3541L16.5 12.7148C14.8774 15.3617 13.5258 17.5633 12.0184 20.0002L12.0185 15.3541Z" fill="#009F42"/>
<path d="M12.0189 8.61821L7.50183 11.2293L11.9993 4L16.4996 11.2451L12.0189 8.61821Z" fill="#01C853"/>
<path d="M12.0177 8.61821L11.998 4L16.4984 11.2451L12.0177 8.61821Z" fill="#009F42"/>
</g>
<defs>
<clipPath id="clip0">
<rect width="9" height="16" fill="white" transform="translate(7.5 4)"/>
</clipPath>
</defs>
</svg>
