<svg width="39" height="38" viewBox="0 0 39 38" fill="none" xmlns="http://www.w3.org/2000/svg">
<circle cx="19.7191" cy="19" r="19" fill="#2491EB"/>
<path d="M25.9669 22.416C25.9669 23.68 25.4869 24.752 24.5269 25.632C23.5829 26.512 22.2069 27.024 20.3989 27.168V29.88H18.8629V27.168C17.6949 27.104 16.5829 26.888 15.5269 26.52C14.4869 26.136 13.6549 25.656 13.0309 25.08L13.9189 23.208C14.4949 23.736 15.2229 24.176 16.1029 24.528C16.9829 24.864 17.9029 25.064 18.8629 25.128V19.56C17.7429 19.288 16.8069 18.992 16.0549 18.672C15.3189 18.352 14.6949 17.88 14.1829 17.256C13.6869 16.632 13.4389 15.816 13.4389 14.808C13.4389 13.544 13.8949 12.472 14.8069 11.592C15.7349 10.712 17.0869 10.2 18.8629 10.056V7.32H20.3989V10.032C21.3109 10.064 22.1909 10.208 23.0389 10.464C23.9029 10.72 24.6469 11.064 25.2709 11.496L24.4789 13.416C23.1829 12.6 21.8229 12.152 20.3989 12.072V17.664C21.5669 17.952 22.5269 18.256 23.2789 18.576C24.0309 18.88 24.6629 19.344 25.1749 19.968C25.7029 20.576 25.9669 21.392 25.9669 22.416ZM15.7909 14.712C15.7909 15.4 16.0549 15.936 16.5829 16.32C17.1109 16.704 17.8709 17.024 18.8629 17.28V12.096C17.8389 12.224 17.0709 12.528 16.5589 13.008C16.0469 13.472 15.7909 14.04 15.7909 14.712ZM20.3989 25.104C21.4709 25.008 22.2709 24.736 22.7989 24.288C23.3429 23.824 23.6149 23.248 23.6149 22.56C23.6149 21.856 23.3349 21.32 22.7749 20.952C22.2309 20.568 21.4389 20.232 20.3989 19.944V25.104Z" fill="white"/>
</svg>
